<?xml version="1.0" encoding="UTF-8"?>
<svg width="350px" height="300px" viewBox="0 0 350 300" version="1.1" xmlns="http://www.w3.org/2000/svg" xmlns:xlink="http://www.w3.org/1999/xlink">
    <!-- Generator: Sketch 60 (88103) - https://sketch.com -->
    <title>状态:60/异常态/服务器异常</title>
    <desc>Created with Sketch.</desc>
    <defs>
        <linearGradient x1="50%" y1="100%" x2="50%" y2="0%" id="linearGradient-1">
            <stop stop-color="#B4B8BF" stop-opacity="0" offset="0%"></stop>
            <stop stop-color="#B4B8BF" offset="100%"></stop>
        </linearGradient>
        <linearGradient x1="100%" y1="49.8792597%" x2="0%" y2="49.8911111%" id="linearGradient-2">
            <stop stop-color="#B4B8BF" stop-opacity="0" offset="0%"></stop>
            <stop stop-color="#B4B8BF" stop-opacity="0.911806468" offset="91.1806468%"></stop>
            <stop stop-color="#B4B8BF" offset="100%"></stop>
        </linearGradient>
        <polygon id="path-3" points="0.0207527728 0.126562722 37.0560793 0.126562722 37.0560793 18.7964438 0.0207527728 18.7964438"></polygon>
        <path d="M17.0704103,158.776694 C-8.50413868,158.776694 -4.33570738,158.776694 29.5757042,158.776694 C63.4871158,158.776694 97.3985274,158.776694 131.309939,158.776694 L131.309939,0 L17.0704103,0 L17.0704103,158.776694 Z" id="path-5"></path>
    </defs>
    <g id="Pro1.1" stroke="none" stroke-width="1" fill="none" fill-rule="evenodd">
        <g id="异常页-500" transform="translate(-628.000000, -168.000000)">
            <g id="FusionModule备份" transform="translate(250.000000, 62.000000)">
                <g id="编组-5" transform="translate(378.000000, 106.000000)">
                    <g id="状态:60/异常态/服务器异常">
                        <g id="编组-4">
                            <g id="状态:60/异常态/网络异常" opacity="0.16">
                                <g id="@子组件/background/default/gary/cloud" fill="url(#linearGradient-1)">
                                    <path d="M0,231 C43.3705512,213.333333 101.703885,204.5 175,204.5 C248.296115,204.5 306.629449,213.333333 350,231" id="路径-19"></path>
                                </g>
                                <ellipse id="椭圆形备份-8" fill="url(#linearGradient-2)" cx="182.5" cy="227.5" rx="75" ry="3.5"></ellipse>
                            </g>
                            <g id="2.通用组件/彩色版/服务器" transform="translate(174.973118, 150.000000) rotate(-180.000000) translate(-174.973118, -150.000000) translate(108.473118, 70.000000)">
                                <g id="分组" transform="translate(0.213840, 0.346053)">
                                    <path d="M72.8770983,148.065749 C70.3390701,148.065749 68.2615501,145.993963 68.2615501,143.46062 L68.2615501,106.621679 C68.2615501,104.088336 70.3390701,102.01655 72.8770983,102.01655 L74.7233176,102.01655 C77.2613458,102.01655 79.3388658,104.088336 79.3388658,106.621679 L79.3388658,143.46062 C79.3388658,145.993963 77.2613458,148.065749 74.7233176,148.065749 L72.8770983,148.065749 Z" id="Fill-1" fill="#D7DAE0"></path>
                                    <path d="M124.035584,154.967594 L24.3449749,154.967594 C21.2857351,154.967594 18.806317,152.493773 18.806317,149.44144 C18.806317,146.39015 21.2857351,143.915285 24.3449749,143.915285 L124.035584,143.915285 C127.094824,143.915285 129.574242,146.39015 129.574242,149.44144 C129.574242,152.493773 127.094824,154.967594 124.035584,154.967594 Z" id="Fill-3" fill="#D7DAE0"></path>
                                    <g transform="translate(55.262315, 139.980250)">
                                        <mask id="mask-4" fill="white">
                                            <use xlink:href="#path-3"></use>
                                        </mask>
                                        <g id="Clip-6"></g>
                                        <path d="M2.78903511,18.7966526 C1.26621817,18.7966526 0.0207527728,17.5529546 0.0207527728,16.0335754 L0.0207527728,2.88859571 C0.0207527728,1.36921651 1.26621817,0.126562722 2.78903511,0.126562722 L34.2867504,0.126562722 C35.8095673,0.126562722 37.0560793,1.36921651 37.0560793,2.88859571 L37.0560793,16.0335754 C37.0560793,17.5529546 35.8095673,18.7966526 34.2867504,18.7966526 L2.78903511,18.7966526 Z" id="Fill-5" fill="#D7DAE0" mask="url(#mask-4)"></path>
                                    </g>
                                    <line x1="59.8821845" y1="142.829268" x2="59.8821845" y2="156.054655" id="Stroke-7" stroke="#C9CDD4" stroke-width="1.2317184" stroke-linecap="round" stroke-linejoin="round"></line>
                                    <line x1="87.2581419" y1="142.829268" x2="87.2581419" y2="156.054655" id="Stroke-9" stroke="#C9CDD4" stroke-width="1.2317184" stroke-linecap="round" stroke-linejoin="round"></line>
                                    <mask id="mask-6" fill="white">
                                        <use xlink:href="#path-5"></use>
                                    </mask>
                                    <g id="Clip-12"></g>
                                    <polygon id="Fill-11" fill="#C9CDD4" mask="url(#mask-6)" points="22.2626404 123.346441 126.116662 123.346441 126.116662 2.30674135 22.2626404 2.30674135"></polygon>
                                    <path d="M21.7965852,124.390688 C19.196807,124.390688 17.0700963,122.268778 17.0700963,119.675913 L17.0700963,91.8028758 C17.0700963,89.2100108 19.196807,87.0881011 21.7965852,87.0881011 L126.584183,87.0881011 C129.182914,87.0881011 131.310672,89.2100108 131.310672,91.8028758 L131.310672,119.675913 C131.310672,122.268778 129.182914,124.390688 126.584183,124.390688 L21.7965852,124.390688 Z" id="Fill-13" fill="#E6E8ED" mask="url(#mask-6)"></path>
                                    <path d="M21.7965852,37.3032135 C19.196807,37.3032135 17.0700963,35.1813039 17.0700963,32.5873946 L17.0700963,4.7154012 C17.0700963,2.1225362 19.196807,-0.000417698751 21.7965852,-0.000417698751 L126.584183,-0.000417698751 C129.182914,-0.000417698751 131.310672,2.1225362 131.310672,4.7154012 L131.310672,32.5873946 C131.310672,35.1813039 129.182914,37.3032135 126.584183,37.3032135 L21.7965852,37.3032135 Z" id="Fill-14" fill="#E6E8ED" mask="url(#mask-6)"></path>
                                    <path d="M30.3119054,22.1881577 L30.3119054,22.1881577 C28.3547455,22.1881577 26.7680854,20.6040351 26.7680854,18.6512935 C26.7680854,16.6985518 28.3547455,15.1154736 30.3119054,15.1154736 C32.2701119,15.1154736 33.856772,16.6985518 33.856772,18.6512935 C33.856772,20.6040351 32.2701119,22.1881577 30.3119054,22.1881577" id="Fill-15" fill="#F0F2F5" mask="url(#mask-6)"></path>
                                    <path d="M37.6920728,18.6512935 C37.6920728,16.6985518 39.278733,15.1154736 41.2369395,15.1154736 C43.1940994,15.1154736 44.7818061,16.6985518 44.7818061,18.6512935 C44.7818061,20.6040351 43.1940994,22.1881577 41.2369395,22.1881577 C39.278733,22.1881577 37.6920728,20.6040351 37.6920728,18.6512935 Z" id="Fill-16" fill="#F0F2F5" mask="url(#mask-6)"></path>
                                    <path d="M52.1619736,22.1881577 L52.1619736,22.1881577 C50.203767,22.1881577 48.6171069,20.6040351 48.6171069,18.6512935 C48.6171069,16.6985518 50.203767,15.1154736 52.1619736,15.1154736 C54.1191335,15.1154736 55.7057936,16.6985518 55.7057936,18.6512935 C55.7057936,20.6040351 54.1191335,22.1881577 52.1619736,22.1881577" id="Fill-17" fill="#F0F2F5" mask="url(#mask-6)"></path>
                                    <path d="M89.780157,22.1881577 C89.2401064,22.1881577 88.8026236,21.7516625 88.8026236,21.2128311 L88.8026236,16.0908001 C88.8026236,15.5519688 89.2401064,15.1154736 89.780157,15.1154736 L123.26957,15.1154736 C123.809621,15.1154736 124.247104,15.5519688 124.247104,16.0908001 L124.247104,21.2128311 C124.247104,21.7516625 123.809621,22.1881577 123.26957,22.1881577 L89.780157,22.1881577 Z" id="Fill-18" fill="#F0F2F5" mask="url(#mask-6)"></path>
                                    <path d="M21.7965852,80.8469508 C19.196807,80.8469508 17.0700963,78.7250411 17.0700963,76.1311319 L17.0700963,48.2591385 C17.0700963,45.6662735 19.196807,43.5433196 21.7965852,43.5433196 L126.584183,43.5433196 C129.182914,43.5433196 131.310672,45.6662735 131.310672,48.2591385 L131.310672,76.1311319 C131.310672,78.7250411 129.182914,80.8469508 126.584183,80.8469508 L21.7965852,80.8469508 Z" id="Fill-19" fill="#E6E8ED" mask="url(#mask-6)"></path>
                                    <path d="M30.3119054,66.9954337 L30.3119054,66.9954337 C28.3547455,66.9954337 26.7680854,65.4123554 26.7680854,63.4585695 C26.7680854,61.5058278 28.3547455,59.9227496 30.3119054,59.9227496 C32.2701119,59.9227496 33.856772,61.5058278 33.856772,63.4585695 C33.856772,65.4123554 32.2701119,66.9954337 30.3119054,66.9954337" id="Fill-20" fill="#F0F2F5" mask="url(#mask-6)"></path>
                                    <path d="M41.2369395,66.9954337 L41.2369395,66.9954337 C39.278733,66.9954337 37.6920728,65.4123554 37.6920728,63.4585695 C37.6920728,61.5058278 39.278733,59.9227496 41.2369395,59.9227496 C43.1940994,59.9227496 44.7818061,61.5058278 44.7818061,63.4585695 C44.7818061,65.4123554 43.1940994,66.9954337 41.2369395,66.9954337" id="Fill-21" fill="#F0F2F5" mask="url(#mask-6)"></path>
                                    <path d="M52.1619736,66.9954337 L52.1619736,66.9954337 C50.203767,66.9954337 48.6171069,65.4123554 48.6171069,63.4585695 C48.6171069,61.5058278 50.203767,59.9227496 52.1619736,59.9227496 C54.1191335,59.9227496 55.7057936,61.5058278 55.7057936,63.4585695 C55.7057936,65.4123554 54.1191335,66.9954337 52.1619736,66.9954337" id="Fill-22" fill="#F0F2F5" mask="url(#mask-6)"></path>
                                    <path d="M89.9844552,66.9954337 C89.3313708,66.9954337 88.802833,66.468089 88.802833,65.8164789 L88.802833,61.10066 C88.802833,60.4500942 89.3313708,59.9227496 89.9844552,59.9227496 L123.065691,59.9227496 C123.718775,59.9227496 124.247313,60.4500942 124.247313,61.10066 L124.247313,65.8164789 C124.247313,66.468089 123.718775,66.9954337 123.065691,66.9954337 L89.9844552,66.9954337 Z" id="Fill-23" fill="#F0F2F5" mask="url(#mask-6)"></path>
                                    <path d="M26.7680854,105.99983 C26.7680854,104.047088 28.3547455,102.46401 30.3119054,102.46401 C32.2701119,102.46401 33.856772,104.047088 33.856772,105.99983 C33.856772,107.952571 32.2701119,109.536694 30.3119054,109.536694 C28.3547455,109.536694 26.7680854,107.952571 26.7680854,105.99983 Z" id="Fill-24" fill="#F0F2F5" mask="url(#mask-6)"></path>
                                    <path d="M41.2369395,109.536694 L41.2369395,109.536694 C39.278733,109.536694 37.6920728,107.952571 37.6920728,105.99983 C37.6920728,104.047088 39.278733,102.46401 41.2369395,102.46401 C43.1940994,102.46401 44.7818061,104.047088 44.7818061,105.99983 C44.7818061,107.952571 43.1940994,109.536694 41.2369395,109.536694" id="Fill-25" fill="#F0F2F5" mask="url(#mask-6)"></path>
                                    <path d="M52.1619736,109.536694 L52.1619736,109.536694 C50.203767,109.536694 48.6171069,107.952571 48.6171069,105.99983 C48.6171069,104.047088 50.203767,102.46401 52.1619736,102.46401 C54.1191335,102.46401 55.7057936,104.047088 55.7057936,105.99983 C55.7057936,107.952571 54.1191335,109.536694 52.1619736,109.536694" id="Fill-26" fill="#F0F2F5" mask="url(#mask-6)"></path>
                                    <path d="M89.9844552,109.536694 C89.3313708,109.536694 88.802833,109.008305 88.802833,108.357739 L88.802833,103.64192 C88.802833,102.991355 89.3313708,102.46401 89.9844552,102.46401 L123.065691,102.46401 C123.718775,102.46401 124.247313,102.991355 124.247313,103.64192 L124.247313,108.357739 C124.247313,109.008305 123.718775,109.536694 123.065691,109.536694 L89.9844552,109.536694 Z" id="Fill-27" fill="#F0F2F5" mask="url(#mask-6)"></path>
                                </g>
                            </g>
                            <g id="编组-3" transform="translate(30.000000, 171.000000)">
                                <g id="编组-2" transform="translate(27.049783, 26.663594) rotate(42.000000) translate(-27.049783, -26.663594) translate(4.125254, 11.884748)">
                                    <path d="M-1.30987009e-13,9.12856495 C2.8921549,16.987848 6.82770564,22.4761889 11.8066522,25.5935877 C19.2750721,30.2696859 28.3198065,30.2573402 34.8009799,26.3808145 C39.1217622,23.7964641 42.6896502,20.3205233 45.504644,15.9529921 C40.77615,16.624294 35.8019729,14.852554 30.5821125,10.6377721 C25.3622522,6.42299028 22.1471909,2.87706623 20.9369289,-4.13167443e-15 C14.4216847,3.83676721 9.93968076,6.13662789 7.49091715,6.89958202 C5.04215354,7.66253616 2.54518116,8.40553047 -1.30987009e-13,9.12856495 Z" id="路径-8" fill="#E6E8ED"></path>
                                    <path d="M25.0424849,18.2945861 C28.0601872,20.6125144 31.4546747,21.553158 35.2259473,21.116517 C38.99722,20.679876 42.4234522,18.958701 45.504644,15.9529921 C40.0562513,23.1403679 35.0793156,27.3129276 30.5738368,28.4706712 C26.068358,29.6284148 22.0620508,29.6284148 18.5549152,28.4706712 C21.8757214,28.2807191 24.0382446,27.0114433 25.0424849,24.6628436 C26.0467252,22.314244 26.0467252,20.1914915 25.0424849,18.2945861 Z" id="路径-9" fill="#DFE2E8"></path>
                                </g>
                            </g>
                            <path d="M308.058608,97.9128118 C308.701397,97.4715102 309.566343,97.5992817 310.056787,98.1852324 L310.144212,98.3004404 L313.834027,103.674942 C314.30291,104.357906 314.129362,105.291663 313.446398,105.760546 C312.803608,106.201847 311.938663,106.074076 311.448218,105.488125 L311.360794,105.372917 L307.670979,99.9984158 C307.202096,99.3154514 307.375643,98.3816947 308.058608,97.9128118 Z" id="路径-6备份-3" fill="#E6E8ED" fill-rule="nonzero" transform="translate(310.752503, 101.836679) rotate(-56.000000) translate(-310.752503, -101.836679) "></path>
                            <path d="M298.34911,83.9187402 C298.887447,83.2890699 299.834304,83.2150296 300.463974,83.7533667 C301.05429,84.2580576 301.156259,85.1217994 300.723124,85.746628 L300.629348,85.8682311 L296.392973,90.8233421 C295.854636,91.4530125 294.907778,91.5270527 294.278108,90.9887157 C293.687792,90.4840247 293.585823,89.6202829 294.018959,88.9954543 L294.112735,88.8738512 L298.34911,83.9187402 Z" id="路径-6备份-4" fill="#E6E8ED" fill-rule="nonzero" transform="translate(297.371041, 87.371041) rotate(-41.000000) translate(-297.371041, -87.371041) "></path>
                            <path d="M303.226827,90.8855262 C303.369301,90.1189577 304.071257,89.5976972 304.832384,89.6652301 L304.975666,89.6848763 L311.385106,90.8761293 C312.199585,91.0275077 312.737134,91.8104898 312.585756,92.6249688 C312.443282,93.3915373 311.741325,93.9127978 310.980199,93.845265 L310.836916,93.8256188 L304.427477,92.6343657 C303.612998,92.4829874 303.075448,91.7000052 303.226827,90.8855262 Z" id="路径-6备份-5" fill="#E6E8ED" fill-rule="nonzero" transform="translate(307.906291, 91.755248) rotate(-45.000000) translate(-307.906291, -91.755248) "></path>
                            <path d="M255.5,157 C243.628426,160.917963 237.128426,166.58463 236,174 C234.307361,185.123055 253.314514,195.167159 247,205.5 C242.790324,212.388561 231.790324,213.888561 214,210" id="路径-2" stroke="#E6E8ED" stroke-width="4" stroke-linecap="round"></path>
                            <g id="插头" transform="translate(261.000000, 140.500000) rotate(11.000000) translate(-261.000000, -140.500000) translate(240.000000, 118.000000)" fill-rule="nonzero">
                                <rect id="矩形" fill="#000000" opacity="0" x="0" y="0" width="42" height="42"></rect>
                                <path d="M40,26.18775 C40,26.71425 39.8110236,27.169875 39.43982,27.55125 L33.3959505,33.579 L35.6569179,35.84025 L33.2474691,38.253375 C31.6107987,39.89025 29.6535433,40.8285 27.3790776,41.061375 C25.1046119,41.297625 23.0359955,40.791375 21.1799775,39.549375 L16.6909169,44.0362186 C16.0734966,44.6533339 15.2362781,45 14.3633296,45 C13.6103834,45 13,44.3896166 13,43.6366704 L13,43.6365 C13,42.7634597 13.3467857,41.9261709 13.9640798,41.3087997 L18.4533183,36.819 L18.4533183,36.819 C17.208099,34.96275 16.7052868,32.893875 16.9415073,30.619125 C17.1777278,28.344375 18.1124859,26.39025 19.7525309,24.75 L22.1619798,22.34025 L24.4229471,24.6015 L30.4499438,18.56025 C30.8312711,18.189 31.2868391,18 31.8233971,18 C32.3565804,18 32.8087739,18.189 33.1799775,18.56025 C33.5511811,18.9315 33.7401575,19.387125 33.7401575,19.92375 C33.7401575,20.46375 33.5511811,20.916 33.1799775,21.28725 L27.1462317,27.325125 L30.6726659,30.852 L36.7165354,24.82425 C37.0978628,24.453 37.5534308,24.264 38.0899888,24.264 C38.6130484,24.267375 39.0652418,24.453 39.43982,24.82425 C39.8110236,25.205625 40,25.657875 40,26.18775 Z" id="路径" fill="#E6E8ED"></path>
                            </g>
                            <g id="插座" transform="translate(264.000000, 95.000000)" fill-rule="nonzero">
                                <rect id="矩形" fill="#000000" opacity="0" x="0" y="28" width="44" height="44"></rect>
                                <path d="M30.7997824,0 L8.23612622,0 C-2.74537541,0 -2.74537541,32 8.23612622,32 L30.7997824,32 C41.7334059,32 41.7334059,0 30.7997824,0 Z M14.616975,16 C14.616975,16.8832 13.8857454,17.6 12.9847661,17.6 C12.0837867,17.6 11.3525571,16.8832 11.3525571,16 L11.3525571,9.6 C11.3525571,8.7168 12.0837867,8 12.9847661,8 C13.8857454,8 14.616975,8.7168 14.616975,9.6 L14.616975,16 Z M22.7780196,27.2 L16.2491839,27.2 L16.2491839,25.6 C16.2491839,23.8293333 17.7116431,22.4 19.5136017,22.4 C21.3155604,22.4 22.7780196,23.8293333 22.7780196,25.6 L22.7780196,27.2 Z M27.6746464,16 C27.6746464,16.8832 26.9434168,17.6 26.0424374,17.6 C25.1414581,17.6 24.4102285,16.8832 24.4102285,16 L24.4102285,9.6 C24.4102285,8.7168 25.1414581,8 26.0424374,8 C26.9434168,8 27.6746464,8.7168 27.6746464,9.6 L27.6746464,16 Z" id="形状" fill="#E6E8ED"></path>
                            </g>
                        </g>
                    </g>
                </g>
            </g>
        </g>
    </g>
</svg>