<svg width="16" height="16" viewBox="0 0 16 16" fill="none" xmlns="http://www.w3.org/2000/svg">
<path fill-rule="evenodd" clip-rule="evenodd" d="M9.06654 7.9998C9.06654 7.6798 9.27987 7.46647 9.59987 7.46647C9.91987 7.46647 10.1332 7.6798 10.1332 7.9998C10.1332 9.81314 8.74654 11.1998 6.9332 11.1998H3.7332C1.91987 11.1998 0.533203 9.81314 0.533203 7.9998C0.533203 6.18647 1.91987 4.7998 3.7332 4.7998H5.3332C5.6532 4.7998 5.86654 5.01314 5.86654 5.33314C5.86654 5.65314 5.6532 5.86647 5.3332 5.86647H3.7332C2.55987 5.86647 1.59987 6.82647 1.59987 7.9998C1.59987 9.17314 2.55987 10.1331 3.7332 10.1331H6.9332C8.10654 10.1331 9.06654 9.17314 9.06654 7.9998ZM9.06655 4.7998H12.2665C14.0799 4.7998 15.4665 6.18647 15.4665 7.9998C15.4665 9.81314 14.0799 11.1998 12.2665 11.1998H10.6665C10.3465 11.1998 10.1332 10.9865 10.1332 10.6665C10.1332 10.3465 10.3465 10.1331 10.6665 10.1331H12.2665C13.4399 10.1331 14.3999 9.17314 14.3999 7.9998C14.3999 6.82647 13.4399 5.86647 12.2665 5.86647H9.06655C7.89321 5.86647 6.93321 6.82647 6.93321 7.9998C6.93321 8.3198 6.71988 8.53314 6.39988 8.53314C6.07988 8.53314 5.86655 8.3198 5.86655 7.9998C5.86655 6.18647 7.25321 4.7998 9.06655 4.7998Z" fill="white"/>
</svg>
